<?xml version="1.0" encoding="UTF-8" standalone="no"?>
<svg
   height="300px"
   width="300px"
   fill="#000000"
   version="1.1"
   x="0px"
   y="0px"
   viewBox="-20.794 -3 100 100"
   overflow="visible"
   enable-background="new -20.794 -3 100 100"
   xml:space="preserve"
   id="svg2"
   sodipodi:docname="mic_unmuted_white.svg"
   inkscape:version="1.3 (0e150ed6c4, 2023-07-21)"
   inkscape:export-filename="../mic_unmuted_white.png"
   inkscape:export-xdpi="32"
   inkscape:export-ydpi="32"
   xmlns:inkscape="http://www.inkscape.org/namespaces/inkscape"
   xmlns:sodipodi="http://sodipodi.sourceforge.net/DTD/sodipodi-0.dtd"
   xmlns="http://www.w3.org/2000/svg"
   xmlns:svg="http://www.w3.org/2000/svg"><defs
     id="defs2" /><sodipodi:namedview
     id="namedview2"
     pagecolor="#ffffff"
     bordercolor="#000000"
     borderopacity="0.25"
     inkscape:showpageshadow="2"
     inkscape:pageopacity="0.0"
     inkscape:pagecheckerboard="0"
     inkscape:deskcolor="#d1d1d1"
     inkscape:zoom="0.78666667"
     inkscape:cx="150"
     inkscape:cy="150"
     inkscape:window-width="1042"
     inkscape:window-height="1119"
     inkscape:window-x="0"
     inkscape:window-y="0"
     inkscape:window-maximized="1"
     inkscape:current-layer="svg2" /><path
     fill="#000000"
     d="M29.206,62.703c8.638,0,15.643-7.002,15.643-15.642V15.642C44.848,7.005,37.843,0,29.206,0  c-8.64,0-15.642,7.005-15.642,15.642v31.419C13.563,55.701,20.565,62.703,29.206,62.703z"
     id="path1"
     style="fill:#ffffff" /><path
     fill="#000000"
     d="M52.14,40.702v6.38c0,12.648-10.287,22.935-22.935,22.935c-12.648,0-22.935-10.287-22.935-22.935v-6.38H0  v6.38c0,15.045,11.435,27.465,26.07,29.035v11.612H8.821V94h40.77v-6.271H32.341V76.117c14.635-1.569,26.07-13.989,26.07-29.035  v-6.38H52.14z"
     id="path2"
     style="fill:#ffffff" /></svg>
